# xmcd
#
# Track frame offsets:
#  150
#  22924
#  42993
#  69958
#  82569
#  102861
#  118320
#  136986
#  159852
#  172859
#  191538
#  214344
#
# Disc length: 3116 seconds
#
# Revision: 1
# Processed by: cddbd v1.5.1PL2 Copyright (c) Steve Scherf et al.
# Submitted via: Collectorz.com_Music_Collector 6.11
#
DISCID=8f0c2a0c
DTITLE=Doug MacLeod - Where I Been
DYEAR=2006
DGENRE=Blues
TTITLE0=Bad Magic
TTITLE1=Take Your Leave Ofr Me Lady
TTITLE2=Angel In Hell
TTITLE3=Don’t Believe Everything You Read
TTITLE4=A Broken Dream In A Broken Room
TTITLE5=I’m So Broke (I Can’t Even Pay Attention)
TTITLE6=The Leavin’ Road
TTITLE7=Bait-Man
TTITLE8=Ain't No Cure
TTITLE9=Strip-Ed Bone
TTITLE10=Turkey Leg Woman
TTITLE11=Familiar Names, Familiar Games
EXTD=
EXTT0=
EXTT1=
EXTT2=
EXTT3=
EXTT4=
EXTT5=
EXTT6=
EXTT7=
EXTT8=
EXTT9=
EXTT10=
EXTT11=
PLAYORDER=
